<?xml version="1.0" standalone="no"?>
<!DOCTYPE svg PUBLIC "-//W3C//DTD SVG 20010904//EN"
 "http://www.w3.org/TR/2001/REC-SVG-20010904/DTD/svg10.dtd">
<svg version="1.0" xmlns="http://www.w3.org/2000/svg"
 width="300.000000pt" height="169.000000pt" viewBox="0 0 300.000000 169.000000"
 preserveAspectRatio="xMidYMid meet">
<metadata>
Created by potrace 1.10, written by Peter Selinger 2001-2011
</metadata>
<g transform="translate(0.000000,169.000000) scale(0.100000,-0.100000)"
fill="#000000" stroke="none">
<path d="M5 1678 c-3 -7 -4 -386 -3 -843 l3 -830 1495 0 1495 0 0 840 0 840
-1493 3 c-1189 2 -1494 0 -1497 -10z m2985 -833 l0 -835 -1490 0 -1490 0 0
835 0 835 1490 0 1490 0 0 -835z"/>
<path d="M490 295 l0 -265 1030 0 1030 0 0 265 0 265 -1030 0 -1030 0 0 -265z
m2050 0 l0 -255 -1017 0 -1018 0 0 255 0 255 1018 0 1017 0 0 -255z"/>
<path d="M1137 403 c-11 -10 -8 -121 3 -128 6 -4 10 20 10 64 0 71 -1 77 -13
64z"/>
<path d="M1900 390 c0 -5 5 -10 10 -10 6 0 10 5 10 10 0 6 -4 10 -10 10 -5 0
-10 -4 -10 -10z"/>
<path d="M770 378 c0 -9 -6 -19 -12 -21 -10 -4 -10 -6 0 -6 7 -1 12 -15 12
-36 0 -23 6 -38 15 -42 19 -7 34 5 19 15 -16 10 -23 61 -9 64 8 2 6 9 -7 22
-15 16 -18 17 -18 4z"/>
<path d="M830 327 c0 -26 3 -48 8 -48 4 -1 19 -2 35 -3 25 -2 27 0 27 41 0 24
-4 43 -10 43 -5 0 -10 -16 -10 -36 0 -28 -3 -35 -17 -32 -13 2 -18 13 -19 35
-1 52 -14 51 -14 0z"/>
<path d="M955 360 c-4 -6 -11 -8 -16 -5 -5 4 -9 -14 -9 -40 0 -29 4 -44 10
-40 6 4 8 11 4 16 -10 17 5 57 24 61 12 2 13 6 5 11 -6 4 -14 3 -18 -3z"/>
<path d="M1013 363 c-20 -4 -23 -11 -23 -49 0 -54 18 -59 22 -6 4 51 32 51 36
-1 4 -43 22 -41 22 3 0 22 -24 65 -33 59 -1 -1 -12 -4 -24 -6z"/>
<path d="M1185 350 c-35 -39 8 -97 52 -71 15 9 13 10 -14 11 -21 0 -33 5 -33
14 0 9 8 12 25 8 33 -6 46 25 20 44 -25 18 -29 18 -50 -6z m45 -10 c0 -5 -9
-10 -21 -10 -11 0 -17 5 -14 10 3 6 13 10 21 10 8 0 14 -4 14 -10z"/>
<path d="M1283 363 c-20 -8 -15 -41 7 -48 29 -9 25 -23 -7 -27 -23 -4 -25 -6
-10 -12 9 -5 24 -6 32 -2 22 8 18 44 -5 51 -26 8 -26 29 1 22 12 -3 19 -1 16
6 -4 13 -18 17 -34 10z"/>
<path d="M1352 358 c-18 -18 -15 -36 8 -43 27 -8 25 -23 -2 -28 -21 -3 -21 -4
-5 -12 13 -5 24 -2 35 10 16 16 16 18 -5 32 -27 18 -30 33 -7 33 8 0 12 5 9
10 -8 13 -18 13 -33 -2z"/>
<path d="M1431 354 c-25 -18 -27 -46 -5 -68 22 -23 41 -20 59 8 29 44 -13 89
-54 60z m44 -34 c0 -18 -6 -26 -22 -28 -18 -3 -23 1 -23 21 0 28 9 39 30 35 9
-2 15 -14 15 -28z"/>
<path d="M1545 360 c-4 -6 -10 -8 -15 -5 -4 3 -10 -13 -12 -36 -2 -22 0 -43 4
-45 4 -2 8 13 10 33 2 27 8 39 21 41 14 3 17 -4 17 -37 0 -23 5 -41 10 -41 6
0 10 18 10 40 0 29 -5 42 -19 50 -14 7 -22 7 -26 0z"/>
<path d="M1685 360 c-4 -6 -11 -8 -16 -5 -5 4 -9 -14 -9 -40 0 -29 4 -44 10
-40 6 4 8 11 4 16 -10 17 5 57 24 61 12 2 13 6 5 11 -6 4 -14 3 -18 -3z"/>
<path d="M1736 357 c-12 -9 -17 -23 -14 -41 4 -34 28 -52 54 -41 16 7 15 9
-10 14 -34 7 -33 27 1 23 29 -4 35 10 17 36 -18 26 -24 27 -48 9z m39 -17 c4
-6 -5 -10 -20 -10 -15 0 -24 4 -20 10 3 6 12 10 20 10 8 0 17 -4 20 -10z"/>
<path d="M1810 357 c0 -27 31 -90 40 -81 15 16 39 84 30 84 -6 0 -16 -15 -23
-32 l-14 -33 -7 32 c-8 34 -26 55 -26 30z"/>
<path d="M1956 357 c-12 -9 -17 -23 -14 -41 4 -35 28 -53 54 -41 17 8 16 9 -8
13 -16 2 -28 9 -28 16 0 9 9 12 24 9 31 -6 42 14 20 38 -20 23 -25 23 -48 6z
m39 -17 c3 -5 -3 -10 -14 -10 -12 0 -21 5 -21 10 0 6 6 10 14 10 8 0 18 -4 21
-10z"/>
<path d="M2034 348 c12 -51 26 -79 36 -73 5 3 10 15 10 25 0 32 17 32 24 0 3
-17 9 -30 13 -30 12 0 42 90 32 96 -5 3 -12 -9 -15 -26 -9 -42 -20 -46 -28
-10 -7 39 -23 38 -32 -2 l-7 -33 -11 32 c-14 41 -31 57 -22 21z"/>
<path d="M2225 354 c-34 -35 3 -103 43 -78 24 16 28 65 6 81 -23 17 -29 16
-49 -3z m49 -19 c8 -23 -4 -45 -25 -45 -13 0 -19 7 -19 23 0 37 32 53 44 22z"/>
<path d="M2345 360 c-3 -5 -12 -7 -20 -3 -12 4 -15 -4 -15 -35 0 -52 18 -64
22 -15 2 27 8 39 21 41 14 3 17 -4 17 -37 0 -23 5 -41 10 -41 16 0 12 67 -6
84 -18 19 -21 19 -29 6z"/>
<path d="M1900 315 c0 -25 5 -45 10 -45 6 0 10 20 10 45 0 25 -4 45 -10 45 -5
0 -10 -20 -10 -45z"/>
</g>
</svg>
