<?xml version="1.0" standalone="no"?>
<!DOCTYPE svg PUBLIC "-//W3C//DTD SVG 20010904//EN"
 "http://www.w3.org/TR/2001/REC-SVG-20010904/DTD/svg10.dtd">
<svg version="1.0" xmlns="http://www.w3.org/2000/svg"
 width="300.000000pt" height="169.000000pt" viewBox="0 0 300.000000 169.000000"
 preserveAspectRatio="xMidYMid meet">
<metadata>
Created by potrace 1.10, written by Peter Selinger 2001-2011
</metadata>
<g transform="translate(0.000000,169.000000) scale(0.100000,-0.100000)"
fill="#000000" stroke="none">
<path d="M10 845 l0 -835 1483 2 1482 3 3 833 2 832 -1485 0 -1485 0 0 -835z
m2960 5 l0 -820 -1475 0 -1475 0 0 820 0 820 1475 0 1475 0 0 -820z"/>
<path d="M190 1265 l0 -375 1310 0 1310 0 -2 373 -3 372 -1307 3 -1308 2 0
-375z m2600 0 l0 -365 -1295 0 -1295 0 0 365 0 365 1295 0 1295 0 0 -365z"/>
<path d="M1077 1412 c-36 -40 -14 -102 36 -102 18 0 38 -5 45 -12 6 -6 15 -9
19 -5 3 4 -2 13 -12 21 -12 9 -15 15 -7 20 17 10 15 48 -4 74 -18 27 -55 29
-77 4z m68 -41 c0 -41 -25 -62 -49 -42 -16 14 -22 62 -9 75 4 4 19 6 33 4 21
-3 25 -8 25 -37z"/>
<path d="M1290 1420 c0 -5 5 -10 10 -10 6 0 10 5 10 10 0 6 -4 10 -10 10 -5 0
-10 -4 -10 -10z"/>
<path d="M1457 1423 c-15 -14 -6 -42 20 -61 32 -23 23 -46 -16 -38 -24 6 -25
5 -8 -8 32 -25 75 2 61 38 -3 7 -16 18 -30 24 -31 15 -31 32 2 32 14 0 23 4
19 10 -7 11 -38 13 -48 3z"/>
<path d="M1192 1358 c3 -41 5 -43 36 -44 32 -1 32 -1 31 45 l-2 46 -6 -40 c-4
-27 -12 -41 -23 -43 -15 -3 -18 4 -18 37 0 23 -5 41 -11 41 -6 0 -9 -17 -7
-42z"/>
<path d="M1290 1355 c0 -25 5 -45 10 -45 6 0 10 20 10 45 0 25 -4 45 -10 45
-5 0 -10 -20 -10 -45z"/>
<path d="M1330 1390 c0 -5 7 -10 15 -10 19 0 19 -9 0 -34 -22 -29 -19 -36 18
-35 23 1 26 3 10 6 -28 5 -28 8 -3 43 11 15 17 30 13 34 -10 10 -53 7 -53 -4z"/>
<path d="M1541 1381 c-6 -11 -11 -26 -11 -35 0 -23 28 -45 50 -39 27 7 25 23
-2 20 -19 -2 -24 4 -26 27 -3 26 -1 28 23 24 16 -4 24 -1 22 6 -7 20 -45 18
-56 -3z"/>
<path d="M1626 1384 c-38 -37 0 -96 47 -72 20 10 23 58 5 76 -16 16 -33 15
-52 -4z m51 -24 c4 -23 -13 -44 -31 -37 -9 4 -16 18 -16 32 0 22 4 26 22 23
13 -2 24 -10 25 -18z"/>
<path d="M1719 1396 c-5 -11 -3 -86 3 -86 4 0 8 14 8 30 0 22 6 33 23 40 12 5
20 10 17 11 -6 2 -50 7 -51 5z"/>
<path d="M1786 1378 c-20 -29 -20 -34 3 -57 12 -12 27 -17 40 -14 30 8 26 19
-6 18 -14 0 -28 6 -30 13 -3 8 6 12 26 12 32 0 41 16 19 38 -18 18 -35 15 -52
-10z m49 -8 c4 -6 -5 -10 -20 -10 -15 0 -24 4 -20 10 3 6 12 10 20 10 8 0 17
-4 20 -10z"/>
<path d="M210 485 l0 -275 1295 0 1295 0 0 275 0 275 -1295 0 -1295 0 0 -275z
m2580 0 l0 -265 -1285 0 -1285 0 0 265 0 265 1285 0 1285 0 0 -265z"/>
<path d="M1030 570 c0 -33 4 -60 10 -60 6 0 10 11 10 25 0 15 6 25 14 25 8 0
17 -11 20 -25 4 -14 11 -25 16 -25 14 0 12 13 -4 35 -10 14 -11 24 -3 36 16
26 1 49 -33 49 l-30 0 0 -60z m55 19 c-11 -17 -35 -9 -35 11 0 18 3 19 20 10
11 -6 18 -15 15 -21z"/>
<path d="M1631 616 c-16 -20 -17 -72 -1 -91 7 -8 27 -15 44 -15 18 0 37 -5 44
-12 6 -6 15 -8 19 -4 4 4 0 12 -9 17 -12 7 -15 18 -11 49 4 25 1 46 -7 55 -16
19 -64 19 -79 1z m53 -2 c11 -4 16 -19 16 -44 0 -31 -4 -40 -22 -46 -40 -12
-64 48 -32 80 18 18 17 18 38 10z"/>
<path d="M1840 620 c0 -5 4 -10 9 -10 6 0 13 5 16 10 3 6 -1 10 -9 10 -9 0
-16 -4 -16 -10z"/>
<path d="M1297 607 c-2 -7 -2 -30 2 -52 5 -30 11 -40 26 -42 11 -2 14 0 8 3
-17 7 -17 61 -1 66 9 3 8 9 -4 21 -20 20 -24 21 -31 4z"/>
<path d="M1518 608 c-3 -7 -3 -32 0 -55 3 -34 8 -43 23 -43 10 0 19 5 19 10 0
6 -6 9 -12 8 -8 -2 -14 9 -16 25 -2 19 1 27 12 27 9 0 16 5 16 10 0 6 -7 10
-16 10 -8 0 -12 5 -9 10 3 6 2 10 -3 10 -6 0 -12 -6 -14 -12z"/>
<path d="M1144 592 c-17 -11 -22 -35 -13 -59 6 -17 16 -23 39 -23 16 0 30 4
30 9 0 6 -12 9 -26 8 -15 -1 -29 4 -31 11 -3 8 6 12 26 12 24 0 31 4 31 19 0
25 -33 39 -56 23z m36 -17 c11 -13 8 -15 -15 -15 -23 0 -26 2 -15 15 7 8 14
15 15 15 1 0 8 -7 15 -15z"/>
<path d="M1223 583 c-4 -11 1 -22 15 -31 28 -18 29 -36 2 -29 -11 3 -20 1 -20
-5 0 -16 55 -4 58 13 2 9 -8 20 -23 27 -26 12 -25 38 1 28 8 -3 14 -1 14 4 0
17 -40 11 -47 -7z"/>
<path d="M1365 591 c-4 -7 2 -10 16 -8 12 1 24 -4 26 -10 3 -8 -4 -13 -15 -13
-24 0 -43 -22 -33 -38 4 -7 20 -11 35 -10 25 2 27 5 24 43 -2 32 -7 41 -25 43
-11 2 -24 -2 -28 -7z m45 -51 c0 -12 -28 -25 -36 -17 -9 9 6 27 22 27 8 0 14
-5 14 -10z"/>
<path d="M1450 553 c0 -24 5 -43 10 -43 6 0 10 16 10 35 0 24 5 35 15 35 8 0
15 4 15 10 0 5 -11 9 -25 8 -22 -2 -25 -7 -25 -45z"/>
<path d="M1754 560 c1 -43 2 -45 34 -47 32 -1 32 -1 32 43 0 54 -18 59 -22 7
-4 -53 -31 -51 -39 2 l-7 40 2 -45z"/>
<path d="M1849 598 c-5 -19 -2 -88 4 -88 4 0 7 20 7 45 0 25 -2 45 -5 45 -3 0
-5 -1 -6 -2z"/>
<path d="M1880 589 c0 -6 9 -9 20 -6 25 6 25 -1 0 -33 -27 -34 -25 -40 13 -39
27 1 28 2 10 7 l-23 7 20 30 c26 40 25 45 -10 45 -16 0 -30 -5 -30 -11z"/>
</g>
</svg>
