<?xml version="1.0" standalone="no"?>
<!DOCTYPE svg PUBLIC "-//W3C//DTD SVG 20010904//EN"
 "http://www.w3.org/TR/2001/REC-SVG-20010904/DTD/svg10.dtd">
<svg version="1.0" xmlns="http://www.w3.org/2000/svg"
 width="300.000000pt" height="169.000000pt" viewBox="0 0 300.000000 169.000000"
 preserveAspectRatio="xMidYMid meet">
<metadata>
Created by potrace 1.10, written by Peter Selinger 2001-2011
</metadata>
<g transform="translate(0.000000,169.000000) scale(0.100000,-0.100000)"
fill="#000000" stroke="none">
<path d="M10 845 l0 -845 1493 2 1492 3 0 840 0 840 -1492 3 -1493 2 0 -845z
m2980 0 l0 -835 -1485 0 -1485 0 0 835 0 835 1485 0 1485 0 0 -835z"/>
<path d="M392 1103 l3 -168 1125 0 1125 0 3 168 2 167 -1130 0 -1130 0 2 -167z
m2243 2 l0 -155 -1117 0 -1118 0 0 155 0 155 1118 0 1117 0 0 -155z"/>
<path d="M1147 1173 c-11 -10 -8 -121 3 -128 6 -4 10 20 10 64 0 71 -1 77 -13
64z"/>
<path d="M1696 1171 c-4 -5 -3 -17 0 -26 6 -14 3 -16 -14 -11 -26 9 -54 -29
-45 -62 6 -24 6 -24 46 -26 27 -2 27 -2 27 66 0 66 -3 78 -14 59z m-1 -81 c0
-16 -6 -26 -18 -28 -19 -4 -32 20 -23 44 9 25 41 13 41 -16z"/>
<path d="M1478 1143 c-7 -36 4 -92 19 -98 9 -3 19 -2 22 1 3 4 0 9 -6 11 -15
5 -18 63 -3 63 6 0 10 5 10 11 0 5 -4 7 -10 4 -5 -3 -10 1 -10 9 0 22 -18 20
-22 -1z"/>
<path d="M1076 1127 c-22 -16 -18 -65 6 -81 14 -8 22 -7 35 7 17 18 17 18 -9
12 -26 -7 -28 -5 -28 25 0 30 2 32 27 25 23 -5 25 -4 14 9 -16 19 -22 20 -45
3z"/>
<path d="M1196 1124 c-9 -8 -16 -24 -16 -34 0 -21 25 -50 43 -50 7 0 19 5 27
10 11 7 7 10 -17 10 -24 0 -33 5 -33 16 0 10 6 14 15 10 39 -14 62 24 26 44
-25 13 -27 13 -45 -6z m44 -14 c0 -5 -9 -10 -20 -10 -11 0 -20 5 -20 10 0 6 9
10 20 10 11 0 20 -4 20 -10z"/>
<path d="M1293 1133 c-23 -9 -14 -20 12 -15 15 2 25 0 25 -7 0 -6 -8 -11 -19
-11 -10 0 -24 -7 -31 -15 -17 -21 4 -45 36 -43 21 2 24 7 24 44 0 29 -5 44
-16 48 -9 3 -16 6 -17 5 -1 0 -8 -3 -14 -6z m37 -53 c0 -13 -28 -25 -38 -16
-3 4 0 11 8 16 20 13 30 12 30 0z"/>
<path d="M1370 1087 c0 -30 4 -46 10 -42 6 3 10 20 10 36 0 17 6 32 15 35 24
9 17 22 -10 20 -23 -1 -25 -5 -25 -49z"/>
<path d="M1550 1120 c-11 -11 -20 -23 -20 -28 0 -15 31 -52 45 -52 20 0 45 28
45 50 0 19 -25 50 -41 50 -5 0 -18 -9 -29 -20z m45 -30 c0 -16 -6 -26 -18 -28
-19 -4 -32 20 -23 44 9 25 41 13 41 -16z"/>
<path d="M1745 1120 c-38 -42 14 -102 56 -64 24 22 24 46 1 67 -24 22 -35 21
-57 -3z m50 -30 c0 -16 -6 -26 -18 -28 -19 -4 -32 20 -23 44 9 25 41 13 41
-16z"/>
<path d="M400 725 l0 -165 1120 0 1120 0 0 165 0 165 -1120 0 -1120 0 0 -165z
m2230 0 l0 -155 -1110 0 -1110 0 0 155 0 155 1110 0 1110 0 0 -155z"/>
<path d="M1280 787 c0 -18 -5 -23 -27 -22 -26 0 -28 -3 -28 -40 0 -38 1 -40
33 -41 l32 -1 0 64 c0 34 -2 63 -5 63 -3 0 -5 -10 -5 -23z m-6 -74 c-6 -9 -15
-18 -21 -20 -17 -6 -26 36 -12 53 11 13 14 13 28 -1 12 -11 13 -20 5 -32z"/>
<path d="M1613 790 c-3 -11 -10 -20 -16 -20 -7 0 -7 -4 1 -12 7 -7 12 -27 12
-45 0 -18 5 -33 11 -33 7 0 9 12 7 32 -4 23 0 37 11 45 14 11 14 12 -2 13 -11
0 -17 5 -14 13 2 6 10 11 16 10 6 -2 11 2 11 7 0 19 -32 10 -37 -10z"/>
<path d="M1460 790 c0 -5 5 -10 10 -10 6 0 10 5 10 10 0 6 -4 10 -10 10 -5 0
-10 -4 -10 -10z"/>
<path d="M1057 777 c-2 -7 -2 -30 2 -52 5 -33 10 -40 31 -42 15 -1 18 0 8 3
-13 4 -18 16 -18 40 0 19 4 33 9 29 5 -3 12 -1 16 5 3 5 -1 10 -9 10 -9 0 -16
5 -16 10 0 14 -17 12 -23 -3z"/>
<path d="M1131 756 c-7 -8 -11 -27 -9 -43 6 -50 78 -40 78 11 0 41 -45 62 -69
32z m44 -32 c0 -32 -21 -39 -38 -12 -8 12 -7 21 3 32 19 24 35 14 35 -20z"/>
<path d="M1334 762 c-32 -22 -18 -82 19 -82 29 0 47 17 47 45 0 36 -37 57 -66
37z m41 -38 c0 -32 -21 -39 -38 -12 -8 12 -7 21 3 32 19 24 35 14 35 -20z"/>
<path d="M1460 725 c0 -25 5 -45 10 -45 6 0 10 20 10 45 0 25 -4 45 -10 45 -5
0 -10 -20 -10 -45z"/>
<path d="M1505 724 c0 -24 3 -44 8 -44 4 0 7 13 7 29 0 29 21 57 33 44 4 -3 7
-21 7 -40 0 -18 5 -33 10 -33 12 0 13 59 2 77 -4 6 -21 11 -37 11 -29 -1 -30
-3 -30 -44z"/>
<path d="M1671 756 c-7 -8 -11 -27 -9 -43 6 -50 78 -40 78 11 0 41 -45 62 -69
32z m44 -32 c0 -32 -21 -39 -38 -12 -8 12 -7 21 3 32 19 24 35 14 35 -20z"/>
<path d="M417 503 c-4 -3 -7 -102 -7 -220 l0 -213 1113 2 1112 3 0 215 0 215
-1106 3 c-608 1 -1109 -1 -1112 -5z m2203 -218 l0 -205 -1100 0 -1100 0 0 205
0 205 1100 0 1100 0 0 -205z"/>
<path d="M1227 367 c4 -20 0 -23 -24 -22 -26 0 -28 -3 -28 -40 0 -38 1 -40 33
-41 l32 -1 0 64 c0 34 -4 63 -9 63 -4 0 -6 -10 -4 -23z m-3 -49 c7 -12 6 -21
-4 -33 -12 -14 -15 -14 -28 -2 -9 9 -11 23 -7 36 7 24 23 24 39 -1z"/>
<path d="M1326 366 c5 -21 3 -23 -20 -19 -20 4 -28 0 -35 -18 -14 -38 1 -64
38 -65 l31 -1 0 64 c0 36 -4 63 -10 63 -6 0 -8 -10 -4 -24z m-2 -48 c14 -23
-11 -53 -30 -37 -23 19 -15 64 10 56 5 -2 14 -10 20 -19z"/>
<path d="M1630 367 c0 -18 -5 -23 -27 -22 -26 0 -28 -3 -28 -40 0 -39 1 -40
37 -41 l36 -2 0 64 c0 35 -4 64 -9 64 -5 0 -9 -10 -9 -23z m0 -57 c0 -10 -6
-23 -14 -29 -19 -16 -39 16 -25 41 11 21 39 13 39 -12z"/>
<path d="M1415 360 c3 -5 1 -10 -6 -10 -9 0 -9 -3 1 -14 6 -8 11 -23 10 -33
-1 -10 -2 -24 -1 -30 1 -15 41 -18 41 -3 0 6 -7 10 -15 10 -22 0 -20 57 3 63
16 4 16 5 0 6 -10 0 -18 6 -18 11 0 6 -5 10 -11 10 -5 0 -7 -4 -4 -10z"/>
<path d="M1080 341 c0 -6 10 -10 21 -8 12 1 24 -4 26 -10 3 -8 -5 -13 -20 -13
-28 0 -42 -23 -24 -38 7 -5 23 -10 38 -10 24 0 25 3 20 42 -5 36 -10 41 -33
44 -16 2 -28 -1 -28 -7z m48 -53 c-3 -7 -11 -13 -18 -13 -7 0 -15 6 -17 13 -3
7 4 12 17 12 13 0 20 -5 18 -12z"/>
<path d="M1481 336 c-16 -20 -10 -56 12 -70 27 -17 52 4 52 45 0 29 -4 34 -26
37 -14 2 -31 -4 -38 -12z m48 -15 c7 -13 6 -23 -3 -36 -16 -22 -36 -12 -36 19
0 39 22 49 39 17z"/>
<path d="M1677 343 c-4 -3 -7 -21 -7 -39 0 -28 5 -35 25 -40 15 -4 32 -1 40 6
18 15 20 51 3 68 -13 13 -50 16 -61 5z m48 -39 c0 -32 -21 -39 -38 -12 -8 12
-7 21 3 32 19 24 35 14 35 -20z"/>
</g>
</svg>
