<?xml version="1.0" standalone="no"?>
<!DOCTYPE svg PUBLIC "-//W3C//DTD SVG 20010904//EN"
 "http://www.w3.org/TR/2001/REC-SVG-20010904/DTD/svg10.dtd">
<svg version="1.0" xmlns="http://www.w3.org/2000/svg"
 width="300.000000pt" height="169.000000pt" viewBox="0 0 300.000000 169.000000"
 preserveAspectRatio="xMidYMid meet">
<metadata>
Created by potrace 1.10, written by Peter Selinger 2001-2011
</metadata>
<g transform="translate(0.000000,169.000000) scale(0.100000,-0.100000)"
fill="#000000" stroke="none">
<path d="M10 845 l0 -835 1485 0 1485 0 0 835 0 835 -1485 0 -1485 0 0 -835z
m2960 0 l0 -825 -1472 0 -1473 0 2 822 c2 453 3 824 3 826 0 1 662 2 1470 2
l1470 0 0 -825z"/>
<path d="M1070 1065 c0 -37 4 -65 10 -65 6 0 10 10 11 23 l0 22 16 -22 c22
-32 39 -29 18 3 -16 24 -16 27 1 45 9 10 12 19 6 19 -6 0 -18 -10 -26 -22 -16
-22 -16 -21 -16 20 0 23 -4 42 -10 42 -6 0 -10 -28 -10 -65z"/>
<path d="M1260 1065 c0 -67 16 -91 22 -33 2 22 9 34 21 36 14 3 17 -4 17 -32
0 -20 5 -36 10 -36 15 0 12 53 -4 75 -8 11 -19 16 -30 12 -12 -5 -16 0 -16 18
0 14 -4 25 -10 25 -6 0 -10 -28 -10 -65z"/>
<path d="M847 1097 c-2 -7 -2 -30 2 -52 5 -30 11 -40 26 -42 11 -2 14 0 8 3
-17 7 -17 61 -1 66 9 3 8 9 -4 21 -20 20 -24 21 -31 4z"/>
<path d="M1196 1093 c-4 -9 -3 -19 1 -22 4 -3 8 -19 8 -36 0 -25 4 -30 25 -32
14 -1 18 0 8 3 -21 6 -25 60 -6 66 9 3 8 9 -4 21 -21 21 -24 21 -32 0z"/>
<path d="M915 1081 c-4 -7 4 -11 19 -11 14 0 26 -4 26 -10 0 -5 -8 -10 -19
-10 -23 0 -42 -22 -33 -37 4 -7 21 -11 38 -11 29 1 30 2 24 42 -4 32 -10 42
-27 44 -11 2 -24 -2 -28 -7z m45 -51 c0 -12 -28 -25 -36 -17 -9 9 6 27 22 27
8 0 14 -5 14 -10z"/>
<path d="M1007 1083 c-14 -14 -6 -41 14 -46 12 -3 18 -10 14 -17 -4 -6 -15 -8
-26 -5 -11 4 -19 2 -19 -4 0 -6 14 -11 30 -11 23 0 30 4 30 20 0 10 -9 24 -20
30 -24 13 -17 32 7 23 11 -4 14 -3 9 5 -8 13 -29 16 -39 5z"/>
<path d="M1360 1044 c0 -24 5 -44 10 -44 6 0 10 14 10 30 0 18 6 33 15 36 23
9 18 22 -10 22 -23 0 -25 -4 -25 -44z"/>
<path d="M1428 1064 c-8 -18 -9 -30 -1 -42 11 -19 73 -29 73 -13 0 5 -12 9
-26 8 -15 -1 -29 4 -31 11 -3 8 6 12 26 12 32 0 41 16 19 38 -20 20 -48 14
-60 -14z m52 -5 c0 -5 -9 -9 -20 -9 -22 0 -27 16 -7 23 15 5 27 -1 27 -14z"/>
<path d="M1531 1076 c-7 -8 -11 -27 -9 -43 2 -23 8 -29 36 -31 17 -2 32 1 32
5 0 5 -12 9 -27 8 -14 0 -28 6 -30 13 -3 8 6 12 26 12 24 0 31 4 31 19 0 30
-39 41 -59 17z m39 -11 c11 -13 8 -15 -15 -15 -23 0 -26 2 -15 15 7 8 14 15
15 15 1 0 8 -7 15 -15z"/>
</g>
</svg>
