<?xml version="1.0" standalone="no"?>
<!DOCTYPE svg PUBLIC "-//W3C//DTD SVG 20010904//EN"
 "http://www.w3.org/TR/2001/REC-SVG-20010904/DTD/svg10.dtd">
<svg version="1.0" xmlns="http://www.w3.org/2000/svg"
 width="300.000000pt" height="169.000000pt" viewBox="0 0 300.000000 169.000000"
 preserveAspectRatio="xMidYMid meet">
<metadata>
Created by potrace 1.10, written by Peter Selinger 2001-2011
</metadata>
<g transform="translate(0.000000,169.000000) scale(0.100000,-0.100000)"
fill="#000000" stroke="none">
<path d="M10 850 l0 -840 1490 0 1490 0 0 840 0 840 -1490 0 -1490 0 0 -840z
m2970 0 l0 -830 -1480 0 -1480 0 0 830 0 830 1480 0 1480 0 0 -830z"/>
<path d="M590 845 l0 -445 980 0 980 0 -2 443 -3 442 -977 3 -978 2 0 -445z
m1940 0 l0 -435 -965 0 -965 0 0 435 0 435 965 0 965 0 0 -435z"/>
<path d="M1397 1108 c-9 -14 -12 -39 -10 -65 6 -52 23 -57 23 -8 0 19 5 35 10
35 6 0 10 5 10 11 0 5 -4 7 -10 4 -5 -3 -10 1 -10 9 0 9 7 16 15 16 8 0 15 5
15 10 0 19 -29 10 -43 -12z"/>
<path d="M1490 1065 c0 -37 4 -65 10 -65 6 0 10 28 10 65 0 37 -4 65 -10 65
-6 0 -10 -28 -10 -65z"/>
<path d="M2250 1110 c0 -5 7 -10 15 -10 8 0 15 5 15 10 0 6 -7 10 -15 10 -8 0
-15 -4 -15 -10z"/>
<path d="M928 1098 c-9 -23 4 -87 18 -99 11 -9 18 -9 26 -1 9 9 8 12 -5 12
-12 0 -17 8 -17 30 0 21 5 30 16 30 8 0 12 5 9 10 -4 6 -11 8 -16 5 -5 -4 -9
1 -9 9 0 19 -16 21 -22 4z"/>
<path d="M1182 1090 c-7 -12 -8 -20 -2 -20 5 0 10 -15 10 -34 0 -32 23 -56 35
-36 3 4 0 10 -7 12 -16 6 -17 58 -1 58 17 0 16 8 -1 26 -18 18 -19 18 -34 -6z"/>
<path d="M662 1078 c-30 -30 -2 -94 36 -81 19 7 14 22 -7 16 -21 -5 -34 18
-24 43 3 10 13 14 25 11 12 -4 18 -1 15 6 -5 17 -30 20 -45 5z"/>
<path d="M742 1078 c-17 -17 -15 -65 4 -76 26 -14 54 -2 61 26 11 45 -34 81
-65 50z m46 -35 c-4 -34 -33 -43 -43 -14 -8 27 1 41 26 41 16 0 20 -6 17 -27z"/>
<path d="M830 1043 c0 -24 5 -43 10 -43 6 0 10 16 10 36 0 28 3 35 18 32 11
-2 19 -16 23 -43 7 -38 7 -38 5 10 -1 49 -1 50 -33 50 -32 1 -33 0 -33 -42z"/>
<path d="M1002 1078 c-7 -7 -12 -24 -12 -40 0 -30 28 -52 54 -42 25 9 19 22
-8 17 -15 -3 -25 1 -29 11 -5 12 0 16 23 16 23 0 30 5 30 19 0 28 -37 40 -58
19z m43 -18 c4 -6 -5 -10 -20 -10 -15 0 -24 4 -20 10 3 6 12 10 20 10 8 0 17
-4 20 -10z"/>
<path d="M1088 1042 c-2 -24 0 -46 4 -48 4 -2 8 13 10 33 2 27 8 39 21 41 14
3 17 -4 17 -32 0 -20 5 -36 10 -36 14 0 12 67 -2 77 -7 4 -23 8 -35 8 -18 1
-22 -6 -25 -43z"/>
<path d="M1295 1066 c-28 -43 12 -89 53 -60 26 18 28 46 6 68 -22 22 -41 20
-59 -8z m53 -23 c-3 -31 -34 -44 -44 -19 -9 24 3 46 26 46 17 0 21 -5 18 -27z"/>
<path d="M1542 1078 c-7 -7 -12 -24 -12 -40 0 -30 28 -52 54 -42 25 9 19 22
-8 17 -15 -3 -25 1 -29 11 -5 13 1 16 28 16 29 0 33 3 28 18 -12 32 -40 41
-61 20z m43 -18 c4 -6 -5 -10 -20 -10 -15 0 -24 4 -20 10 3 6 12 10 20 10 8 0
17 -4 20 -10z"/>
<path d="M1629 1074 c-12 -15 -11 -19 9 -32 27 -18 29 -36 2 -29 -22 6 -28 -8
-7 -16 17 -6 47 11 47 28 0 7 -9 17 -20 20 -26 8 -26 25 1 25 11 0 17 5 14 10
-9 15 -31 12 -46 -6z"/>
<path d="M1701 1076 c-9 -11 -8 -18 4 -30 9 -9 21 -16 26 -16 5 0 9 -5 9 -11
0 -7 -10 -9 -25 -7 -14 3 -25 2 -25 -2 0 -12 28 -20 45 -14 22 9 19 45 -5 51
-26 7 -26 23 1 23 11 0 17 5 14 10 -9 14 -31 12 -44 -4z"/>
<path d="M1782 1078 c-17 -17 -15 -65 4 -76 26 -14 54 -2 61 26 11 45 -34 81
-65 50z m46 -35 c-3 -31 -32 -43 -41 -18 -9 23 3 45 25 45 15 0 19 -6 16 -27z"/>
<path d="M1870 1043 c0 -24 5 -43 10 -43 6 0 10 16 10 36 0 28 3 35 18 32 12
-2 18 -14 20 -41 2 -20 7 -35 11 -33 4 3 5 24 2 48 -6 41 -8 43 -38 43 -32 1
-33 0 -33 -42z"/>
<path d="M2010 1044 c0 -24 5 -44 10 -44 6 0 10 14 10 30 0 18 6 33 15 36 23
9 18 22 -10 22 -23 0 -25 -4 -25 -44z"/>
<path d="M2086 1074 c-9 -8 -16 -24 -16 -34 0 -24 36 -49 61 -43 28 8 23 19
-8 18 -14 0 -28 6 -30 13 -3 8 6 12 26 12 32 0 41 16 19 38 -16 16 -33 15 -52
-4z m44 -14 c0 -5 -9 -10 -20 -10 -11 0 -20 5 -20 10 0 6 9 10 20 10 11 0 20
-4 20 -10z"/>
<path d="M2160 1085 c0 -15 34 -85 41 -85 9 0 39 64 39 82 0 20 -19 -4 -25
-32 -8 -36 -21 -31 -30 10 -4 17 -11 30 -16 30 -5 0 -9 -2 -9 -5z"/>
<path d="M2263 1040 c0 -30 2 -43 4 -27 2 15 2 39 0 55 -2 15 -4 2 -4 -28z"/>
<path d="M2306 1068 c-20 -29 -20 -34 3 -57 12 -12 27 -17 40 -14 30 8 26 19
-6 18 -14 0 -28 6 -30 13 -3 8 6 12 26 12 32 0 41 16 19 38 -18 18 -35 15 -52
-10z m49 -8 c4 -6 -5 -10 -20 -10 -15 0 -24 4 -20 10 3 6 12 10 20 10 8 0 17
-4 20 -10z"/>
<path d="M2397 1045 c17 -52 27 -56 41 -17 l10 27 7 -27 c10 -40 30 -34 44 13
13 44 7 67 -7 28 -5 -13 -12 -31 -15 -39 -3 -8 -6 -10 -6 -3 -1 6 -6 24 -12
40 -8 22 -12 24 -19 13 -6 -8 -10 -25 -10 -38 0 -32 -16 -19 -23 18 -4 16 -11
30 -16 30 -5 0 -3 -20 6 -45z"/>
<path d="M731 900 c-1 -3 -3 -33 -4 -68 -2 -64 9 -87 15 -30 2 22 9 34 21 36
14 3 17 -4 17 -32 0 -20 5 -36 10 -36 15 0 12 66 -4 79 -7 6 -20 9 -29 5 -11
-4 -17 2 -20 23 -2 15 -5 26 -6 23z"/>
<path d="M1200 835 c0 -37 4 -65 10 -65 6 0 10 16 10 36 0 28 3 35 18 32 12
-3 17 -13 16 -36 -1 -18 2 -32 8 -32 5 0 8 19 6 43 -3 38 -5 42 -29 40 -22 -1
-25 2 -21 23 2 14 0 24 -7 24 -7 0 -11 -24 -11 -65z"/>
<path d="M653 843 c-4 -11 1 -22 15 -31 31 -20 28 -35 -5 -28 -26 6 -27 5 -9
-8 14 -11 24 -12 37 -5 26 13 24 24 -8 48 -27 20 -27 20 -5 21 12 0 22 5 22
10 0 17 -40 11 -47 -7z"/>
<path d="M831 846 c-7 -8 -11 -27 -9 -43 3 -25 7 -28 38 -28 31 0 35 3 38 28
4 32 -13 57 -38 57 -10 0 -23 -6 -29 -14z m53 -21 c8 -22 -4 -46 -23 -43 -9 2
-17 15 -19 31 -3 21 1 27 16 27 11 0 22 -7 26 -15z"/>
<path d="M927 815 c17 -52 27 -56 41 -17 l10 27 7 -27 c10 -40 30 -35 43 11
14 46 15 51 3 51 -5 0 -12 -17 -16 -37 l-8 -38 -11 32 c-16 46 -25 50 -32 15
-8 -40 -20 -41 -27 -2 -4 17 -11 30 -16 30 -5 0 -3 -20 6 -45z"/>
<path d="M1060 813 c0 -24 3 -43 8 -43 4 0 7 15 7 32 0 23 5 34 18 36 14 3 17
-4 17 -32 0 -20 5 -36 10 -36 14 0 12 67 -2 77 -7 4 -23 8 -35 8 -20 1 -23 -4
-23 -42z"/>
<path d="M1306 844 c-9 -8 -16 -24 -16 -34 0 -24 36 -49 61 -43 28 8 23 19 -8
18 -14 0 -28 6 -30 13 -3 8 6 12 26 12 32 0 41 16 19 38 -16 16 -33 15 -52 -4z
m44 -14 c0 -5 -9 -10 -20 -10 -11 0 -20 5 -20 10 0 6 9 10 20 10 11 0 20 -4
20 -10z"/>
<path d="M1390 813 c0 -24 5 -43 10 -43 6 0 10 14 10 30 0 18 6 33 15 36 24 9
17 22 -10 20 -23 -1 -25 -5 -25 -43z"/>
<path d="M1466 844 c-9 -8 -16 -24 -16 -34 0 -24 36 -49 61 -43 28 8 23 22 -7
20 -15 -1 -29 4 -31 11 -3 8 6 12 26 12 32 0 41 16 19 38 -16 16 -33 15 -52
-4z m44 -14 c0 -5 -9 -10 -20 -10 -11 0 -20 5 -20 10 0 6 9 10 20 10 11 0 20
-4 20 -10z"/>
<path d="M590 205 l0 -165 980 0 980 0 0 165 0 165 -980 0 -980 0 0 -165z
m1950 0 l0 -155 -970 0 -970 0 0 155 0 155 970 0 970 0 0 -155z"/>
<path d="M1060 245 c0 -37 4 -65 10 -65 6 0 10 28 10 65 0 37 -4 65 -10 65 -6
0 -10 -28 -10 -65z"/>
<path d="M1826 301 c-4 -5 -2 -12 3 -15 5 -4 12 -2 15 3 4 5 2 12 -3 15 -5 4
-12 2 -15 -3z"/>
<path d="M2242 290 c-9 -25 -3 -110 9 -110 5 0 9 18 9 39 0 22 5 42 13 44 10
4 10 6 0 6 -19 1 -15 29 5 34 12 4 11 5 -6 6 -14 1 -25 -6 -30 -19z"/>
<path d="M2302 290 c-9 -25 -3 -110 9 -110 5 0 9 18 9 40 0 25 5 40 13 41 6 0
4 4 -7 8 -17 7 -17 8 -2 24 16 15 16 17 1 17 -8 0 -19 -9 -23 -20z"/>
<path d="M695 280 c3 -5 2 -10 -3 -10 -10 0 0 -76 11 -87 4 -3 14 -2 24 2 17
8 17 8 1 12 -25 6 -25 60 0 66 16 4 16 5 0 6 -10 0 -18 6 -18 11 0 6 -5 10
-11 10 -5 0 -7 -4 -4 -10z"/>
<path d="M750 236 c0 -38 14 -54 50 -54 23 0 25 5 26 44 0 24 -3 44 -8 44 -4
0 -8 -13 -8 -29 0 -29 -21 -57 -33 -44 -4 3 -7 21 -7 40 0 18 -4 33 -10 33 -5
0 -10 -15 -10 -34z"/>
<path d="M850 225 c0 -54 18 -60 22 -7 2 23 8 36 16 35 6 -2 12 2 12 7 0 6
-11 10 -25 10 -23 0 -25 -4 -25 -45z"/>
<path d="M921 221 c2 -34 3 -38 6 -16 10 63 43 74 43 15 0 -22 5 -40 11 -40 6
0 9 17 7 43 -3 40 -5 42 -35 43 -33 1 -33 1 -32 -45z"/>
<path d="M1107 264 c-14 -14 -7 -72 9 -78 25 -10 54 -7 54 5 0 6 -8 8 -19 4
-10 -3 -24 1 -31 10 -11 13 -8 15 19 15 28 0 32 3 29 23 -2 15 -11 23 -28 25
-14 2 -29 0 -33 -4z m46 -18 c1 -5 -8 -11 -20 -12 -23 -4 -30 6 -16 20 9 9 33
4 36 -8z"/>
<path d="M1197 263 c-13 -13 -7 -32 14 -38 23 -8 20 -31 -5 -27 -9 2 -16 -2
-16 -8 0 -5 11 -10 25 -10 35 0 45 29 17 48 -28 18 -28 35 -1 27 15 -5 19 -4
15 4 -8 12 -39 15 -49 4z"/>
<path d="M1264 258 c-4 -6 4 -21 20 -33 29 -23 22 -41 -10 -28 -12 4 -15 3
-10 -5 11 -18 46 -14 53 5 4 11 -1 22 -15 31 -28 18 -29 36 -2 29 11 -3 20 -1
20 4 0 13 -48 11 -56 -3z"/>
<path d="M1347 263 c-4 -3 -7 -21 -7 -39 0 -28 5 -35 25 -40 15 -4 32 -1 40 6
18 15 20 51 3 68 -13 13 -50 16 -61 5z m51 -33 c4 -27 -17 -44 -35 -28 -16 13
-17 30 -1 46 17 17 32 10 36 -18z"/>
<path d="M1440 224 c0 -54 18 -59 22 -6 4 52 31 50 39 -3 l7 -40 -2 45 c-1 44
-2 45 -33 46 -32 1 -33 0 -33 -42z"/>
<path d="M1580 224 c0 -54 18 -59 22 -6 2 23 8 36 16 35 6 -2 12 1 12 6 0 5
-11 9 -25 9 -23 0 -25 -4 -25 -44z"/>
<path d="M1652 258 c-29 -29 -7 -78 34 -78 13 0 26 5 30 11 3 6 -1 10 -12 9
-31 -4 -44 -1 -44 10 0 6 14 10 30 10 31 0 35 6 24 34 -7 19 -45 21 -62 4z
m45 -14 c2 -5 -6 -10 -17 -10 -20 0 -25 7 -13 20 9 8 26 3 30 -10z"/>
<path d="M1735 253 c4 -10 12 -30 17 -45 14 -38 23 -35 42 12 19 47 19 50 7
50 -5 0 -12 -13 -16 -30 -4 -16 -10 -30 -15 -30 -4 0 -10 14 -13 30 -4 17 -12
30 -18 30 -7 0 -8 -7 -4 -17z"/>
<path d="M1833 225 c0 -27 2 -38 4 -22 2 15 2 37 0 50 -2 12 -4 0 -4 -28z"/>
<path d="M1870 249 c-17 -31 2 -69 34 -69 14 0 28 5 32 11 3 6 -1 10 -12 9
-31 -4 -44 -1 -44 10 0 6 14 10 31 10 26 0 30 3 27 23 -4 32 -52 36 -68 6z
m50 -2 c0 -7 -9 -13 -20 -14 -20 -2 -26 8 -13 20 11 12 33 8 33 -6z"/>
<path d="M1967 225 c18 -53 29 -57 41 -12 l9 32 7 -32 c12 -53 26 -43 50 35 4
12 3 22 -2 22 -5 0 -14 -15 -19 -32 l-11 -33 -7 33 c-9 38 -29 37 -33 -1 -4
-36 -18 -34 -25 3 -4 17 -11 30 -16 30 -5 0 -3 -20 6 -45z"/>
<path d="M2140 249 c-17 -31 2 -69 35 -69 31 0 55 42 38 68 -16 27 -60 27 -73
1z m58 -18 c4 -28 -17 -45 -35 -29 -14 11 -17 40 -6 52 14 14 38 0 41 -23z"/>
</g>
</svg>
