<?xml version="1.0" standalone="no"?>
<!DOCTYPE svg PUBLIC "-//W3C//DTD SVG 20010904//EN"
 "http://www.w3.org/TR/2001/REC-SVG-20010904/DTD/svg10.dtd">
<svg version="1.0" xmlns="http://www.w3.org/2000/svg"
 width="300.000000pt" height="169.000000pt" viewBox="0 0 300.000000 169.000000"
 preserveAspectRatio="xMidYMid meet">
<metadata>
Created by potrace 1.10, written by Peter Selinger 2001-2011
</metadata>
<g transform="translate(0.000000,169.000000) scale(0.100000,-0.100000)"
fill="#000000" stroke="none">
<path d="M5 1678 c-3 -7 -4 -386 -3 -843 l3 -830 1493 -3 1492 -2 0 845 0 845
-1490 0 c-1183 0 -1492 -3 -1495 -12z m2975 -833 l0 -835 -1482 0 -1483 0 0
835 0 835 1483 0 1482 0 0 -835z"/>
<path d="M40 840 l0 -820 798 2 797 3 3 818 2 817 -800 0 -800 0 0 -820z
m1580 0 l0 -810 -785 0 -785 0 0 810 0 810 785 0 785 0 0 -810z"/>
<path d="M1357 993 c-11 -10 -8 -133 3 -133 6 0 10 30 10 70 0 70 -1 76 -13
63z"/>
<path d="M400 980 c0 -5 5 -10 10 -10 6 0 10 5 10 10 0 6 -4 10 -10 10 -5 0
-10 -4 -10 -10z"/>
<path d="M685 980 c-3 -5 1 -10 9 -10 9 0 16 5 16 10 0 6 -4 10 -9 10 -6 0
-13 -4 -16 -10z"/>
<path d="M630 968 c0 -9 -6 -19 -12 -21 -10 -4 -10 -6 0 -6 7 -1 12 -15 12
-36 0 -23 6 -38 15 -42 19 -7 34 5 19 15 -16 10 -23 61 -9 64 8 2 6 9 -7 22
-15 16 -18 17 -18 4z"/>
<path d="M130 908 c0 -57 17 -65 22 -10 4 52 31 50 39 -3 l6 -40 2 48 c0 26
-2 48 -6 48 -5 1 -20 2 -35 3 -27 2 -28 0 -28 -46z"/>
<path d="M243 953 c-20 -8 -15 -22 6 -16 10 3 22 0 25 -6 4 -7 -1 -11 -12 -11
-11 0 -25 -7 -32 -15 -17 -20 1 -40 35 -40 23 -1 25 3 25 41 0 29 -5 44 -16
48 -9 3 -16 6 -17 5 -1 0 -8 -3 -14 -6z m37 -53 c0 -13 -28 -25 -38 -16 -3 4
0 11 8 16 20 13 30 12 30 0z"/>
<path d="M310 952 c0 -19 32 -92 40 -92 10 0 42 91 35 98 -3 3 -12 -12 -21
-34 l-17 -39 -11 32 c-12 34 -26 53 -26 35z"/>
<path d="M458 948 c-12 -9 -16 -28 -15 -63 2 -46 4 -50 28 -53 27 -3 55 20 44
38 -3 5 -17 10 -30 10 -13 0 -27 5 -30 10 -4 6 5 10 20 10 32 0 53 41 26 52
-23 10 -25 9 -43 -4z m32 -23 c0 -8 -7 -15 -15 -15 -8 0 -15 7 -15 15 0 8 7
15 15 15 8 0 15 -7 15 -15z m10 -65 c0 -5 -12 -10 -26 -10 -14 0 -23 4 -19 10
3 6 15 10 26 10 10 0 19 -4 19 -10z"/>
<path d="M543 953 c-24 -9 -13 -23 12 -17 14 3 25 2 25 -4 0 -5 -11 -13 -25
-16 -16 -4 -25 -13 -25 -26 0 -21 1 -22 43 -24 25 -2 27 1 27 34 0 49 -20 68
-57 53z m37 -58 c0 -8 -7 -15 -15 -15 -16 0 -20 12 -8 23 11 12 23 8 23 -8z"/>
<path d="M690 910 c0 -29 3 -50 7 -47 3 4 6 25 6 47 0 22 -3 43 -6 47 -4 3 -7
-18 -7 -47z"/>
<path d="M748 948 c-8 -7 -18 -20 -21 -29 -7 -20 19 -59 38 -59 20 0 45 28 45
50 0 18 -25 50 -39 50 -4 0 -14 -6 -23 -12z m37 -38 c0 -29 -32 -41 -41 -16
-9 24 4 48 23 44 12 -2 18 -12 18 -28z"/>
<path d="M831 911 c-1 -57 15 -62 21 -6 4 42 33 40 34 -2 1 -51 14 -52 14 -1
0 48 -20 69 -45 48 -9 -8 -15 -7 -18 2 -3 7 -6 -12 -6 -41z"/>
<path d="M970 893 c0 -35 4 -63 10 -63 6 0 10 9 10 20 0 12 5 17 14 14 17 -6
46 22 46 44 0 29 -16 44 -49 46 l-31 2 0 -63z m55 17 c0 -13 -6 -25 -12 -27
-16 -6 -27 21 -19 43 9 23 31 11 31 -16z"/>
<path d="M1083 953 c-23 -9 -14 -20 12 -15 15 2 25 0 25 -7 0 -6 -9 -11 -20
-11 -26 0 -44 -34 -26 -49 7 -6 24 -10 37 -8 21 4 23 8 20 43 -4 46 -18 60
-48 47z m37 -53 c0 -13 -28 -25 -38 -16 -3 4 0 11 8 16 20 13 30 12 30 0z"/>
<path d="M1160 908 c0 -57 17 -65 22 -10 4 52 31 50 39 -3 l6 -40 2 48 c0 26
-2 48 -6 48 -5 1 -20 2 -35 3 -27 2 -28 0 -28 -46z"/>
<path d="M1264 936 c-15 -24 -15 -28 0 -51 18 -27 24 -29 53 -18 15 6 13 8
-11 13 -16 3 -31 11 -34 19 -3 9 1 11 14 7 29 -9 51 9 38 31 -17 28 -41 27
-60 -1z m51 -6 c4 -6 -5 -10 -20 -10 -15 0 -24 4 -20 10 3 6 12 10 20 10 8 0
17 -4 20 -10z"/>
<path d="M400 911 c0 -22 5 -43 10 -46 6 -4 10 12 10 39 0 25 -4 46 -10 46 -5
0 -10 -18 -10 -39z"/>
</g>
</svg>
