<?xml version="1.0" standalone="no"?>
<!DOCTYPE svg PUBLIC "-//W3C//DTD SVG 20010904//EN"
 "http://www.w3.org/TR/2001/REC-SVG-20010904/DTD/svg10.dtd">
<svg version="1.0" xmlns="http://www.w3.org/2000/svg"
 width="300.000000pt" height="169.000000pt" viewBox="0 0 300.000000 169.000000"
 preserveAspectRatio="xMidYMid meet">
<metadata>
Created by potrace 1.10, written by Peter Selinger 2001-2011
</metadata>
<g transform="translate(0.000000,169.000000) scale(0.100000,-0.100000)"
fill="#000000" stroke="none">
<path d="M10 840 l0 -840 1490 0 1490 0 0 840 0 840 -1490 0 -1490 0 0 -840z
m2970 -2 l0 -828 -1480 0 -1480 0 0 828 0 827 1480 0 1480 0 0 -827z"/>
<path d="M1590 185 l0 -155 685 0 686 0 -3 153 -3 152 -682 3 -683 2 0 -155z
m1360 -5 l0 -140 -675 0 -675 0 0 140 0 140 675 0 675 0 0 -140z"/>
<path d="M1933 253 c-7 -2 -13 -13 -13 -23 0 -10 -6 -21 -12 -23 -10 -4 -10
-6 0 -6 7 -1 12 -16 12 -42 0 -26 4 -38 11 -33 6 3 9 22 7 40 -3 26 0 34 12
35 10 0 11 2 3 6 -15 6 -17 33 -3 33 6 0 10 5 10 10 0 11 -7 12 -27 3z"/>
<path d="M2480 235 c0 -16 -4 -23 -14 -19 -19 7 -46 -23 -46 -51 0 -28 11 -36
51 -39 l29 -2 0 68 c0 39 -4 68 -10 68 -5 0 -10 -11 -10 -25z m-5 -65 c0 -16
-6 -26 -17 -28 -14 -3 -18 3 -18 28 0 25 4 31 18 28 11 -2 17 -12 17 -28z"/>
<path d="M1988 209 c-25 -14 -24 -65 2 -79 14 -8 26 -8 40 0 27 14 27 65 1 80
-23 12 -22 12 -43 -1z m42 -39 c0 -23 -5 -30 -19 -30 -10 0 -21 7 -25 15 -8
23 4 45 25 45 14 0 19 -7 19 -30z"/>
<path d="M2070 168 c0 -27 5 -48 10 -48 6 0 10 16 10 35 0 22 6 38 15 41 24 9
17 22 -10 20 -23 -1 -25 -5 -25 -48z"/>
<path d="M2135 189 c10 -46 24 -71 36 -64 5 4 9 15 9 25 0 10 5 22 10 25 6 3
10 -2 10 -12 0 -10 5 -25 10 -33 7 -12 12 -7 25 22 8 21 15 45 15 53 0 27 -17
8 -25 -27 l-7 -33 -12 40 c-13 39 -13 40 -23 15 -6 -14 -12 -32 -15 -40 -3 -9
-8 -2 -12 17 -4 18 -12 36 -18 39 -7 4 -8 -5 -3 -27z"/>
<path d="M2283 213 c-23 -9 -14 -20 12 -15 14 2 25 0 25 -6 0 -6 -10 -12 -22
-14 -17 -2 -23 -10 -23 -28 0 -21 5 -25 30 -25 29 1 30 3 26 40 -4 56 -12 63
-48 48z m37 -53 c0 -13 -28 -25 -38 -16 -3 4 0 11 8 16 20 13 30 12 30 0z"/>
<path d="M2360 167 c0 -30 4 -46 10 -42 6 3 10 20 10 36 0 17 6 32 15 35 24 9
17 22 -10 20 -23 -1 -25 -5 -25 -49z"/>
<path d="M42 183 l3 -148 760 0 760 0 3 148 3 147 -766 0 -766 0 3 -147z
m1518 2 l0 -135 -755 0 -755 0 0 135 0 135 755 0 755 0 0 -135z"/>
<path d="M620 225 c-3 -5 -3 -39 1 -75 3 -36 6 -59 7 -51 2 11 5 11 17 1 21
-17 45 4 45 40 0 32 -21 53 -43 44 -11 -4 -16 2 -19 23 -2 15 -5 24 -8 18z
m54 -70 c8 -21 -3 -45 -20 -45 -18 0 -28 24 -20 45 3 8 12 15 20 15 7 0 16 -7
20 -15z"/>
<path d="M888 224 c-12 -11 -10 -122 2 -129 6 -4 10 6 10 22 l0 28 25 -30 c26
-32 35 -24 10 9 -13 17 -13 22 2 38 9 10 13 21 9 25 -3 4 -14 -4 -24 -18 l-17
-24 -5 43 c-3 24 -8 40 -12 36z"/>
<path d="M723 183 c-23 -9 -14 -20 12 -15 33 6 33 -14 0 -22 -16 -4 -25 -13
-25 -26 0 -21 1 -22 43 -24 25 -2 27 1 27 34 0 49 -20 68 -57 53z m37 -58 c0
-8 -7 -15 -15 -15 -16 0 -20 12 -8 23 11 12 23 8 23 -8z"/>
<path d="M818 179 c-26 -15 -23 -65 3 -80 17 -9 25 -8 38 6 15 15 14 16 -11
10 -26 -7 -28 -5 -28 25 0 29 2 32 25 26 27 -7 35 8 9 18 -19 7 -15 8 -36 -5z"/>
</g>
</svg>
