<?xml version="1.0" standalone="no"?>
<!DOCTYPE svg PUBLIC "-//W3C//DTD SVG 20010904//EN"
 "http://www.w3.org/TR/2001/REC-SVG-20010904/DTD/svg10.dtd">
<svg version="1.0" xmlns="http://www.w3.org/2000/svg"
 width="300.000000pt" height="169.000000pt" viewBox="0 0 300.000000 169.000000"
 preserveAspectRatio="xMidYMid meet">
<metadata>
Created by potrace 1.10, written by Peter Selinger 2001-2011
</metadata>
<g transform="translate(0.000000,169.000000) scale(0.100000,-0.100000)"
fill="#000000" stroke="none">
<path d="M550 1365 l0 -295 1040 0 1040 0 -2 293 -3 292 -1037 3 -1038 2 0
-295z m2060 -5 l0 -280 -1025 0 -1025 0 0 280 0 280 1025 0 1025 0 0 -280z"/>
<path d="M1157 1492 c-21 -23 -22 -75 -2 -92 8 -7 27 -12 43 -12 15 0 33 -5
40 -11 7 -5 16 -7 20 -3 4 4 -1 12 -10 17 -13 7 -14 14 -5 38 22 59 -45 108
-86 63z m69 -29 c9 -34 -7 -58 -37 -58 -19 0 -25 6 -27 28 -5 41 4 57 32 57
19 0 27 -7 32 -27z"/>
<path d="M1370 1500 c0 -5 5 -10 10 -10 6 0 10 5 10 10 0 6 -4 10 -10 10 -5 0
-10 -4 -10 -10z"/>
<path d="M1548 1498 c-9 -7 -18 -22 -19 -33 -4 -30 10 -75 24 -76 37 -2 64 -7
82 -13 18 -7 18 -6 4 6 -11 9 -14 25 -11 54 6 61 -37 95 -80 62z m61 -30 c11
-31 -2 -62 -27 -66 -29 -4 -49 36 -33 67 15 28 49 27 60 -1z"/>
<path d="M1890 1500 c0 -5 5 -10 10 -10 6 0 10 5 10 10 0 6 -4 10 -10 10 -5 0
-10 -4 -10 -10z"/>
<path d="M1828 1488 c-15 -39 19 -127 37 -98 3 5 1 10 -4 10 -15 0 -14 57 1
62 9 3 8 9 -4 21 -20 20 -24 21 -30 5z"/>
<path d="M1270 1441 c0 -44 22 -70 43 -52 8 6 17 8 20 4 4 -3 6 16 6 43 l-2
49 -6 -40 c-4 -27 -12 -41 -23 -43 -15 -3 -18 4 -18 37 0 23 -4 41 -10 41 -5
0 -10 -17 -10 -39z"/>
<path d="M1370 1436 c0 -25 5 -46 10 -46 6 0 10 18 10 39 0 22 -4 43 -10 46
-6 4 -10 -12 -10 -39z"/>
<path d="M1410 1470 c0 -5 7 -10 15 -10 19 0 19 -9 0 -34 -22 -29 -19 -36 18
-35 23 1 26 3 10 6 -28 5 -28 8 -3 43 11 15 17 30 13 34 -10 10 -53 7 -53 -4z"/>
<path d="M1661 1438 c-1 -49 7 -58 46 -50 20 4 23 10 23 48 0 54 -18 59 -22 7
-4 -53 -31 -51 -39 2 l-6 40 -2 -47z"/>
<path d="M1763 1473 c-20 -7 -15 -31 7 -43 11 -6 20 -16 20 -22 0 -5 -9 -8
-20 -5 -23 6 -28 -8 -6 -16 8 -3 22 1 33 9 17 13 17 15 -4 33 -28 24 -29 31
-2 31 11 0 17 5 14 10 -7 11 -22 12 -42 3z"/>
<path d="M1890 1435 c0 -25 5 -45 10 -45 6 0 10 20 10 45 0 25 -4 45 -10 45
-5 0 -10 -20 -10 -45z"/>
<path d="M1942 1468 c-36 -36 4 -101 48 -78 37 20 21 90 -20 90 -9 0 -21 -5
-28 -12z m51 -20 c7 -23 -5 -48 -23 -48 -18 0 -30 25 -23 48 3 6 13 12 23 12
10 0 20 -6 23 -12z"/>
<path d="M2030 1433 c0 -50 17 -59 22 -11 2 22 9 34 21 36 14 3 17 -4 17 -38
0 -25 4 -39 10 -35 13 8 13 51 0 75 -7 12 -20 18 -40 18 -29 -1 -30 -3 -30
-45z"/>
<path d="M1735 973 l5 -43 -130 0 -130 0 0 -150 0 -150 658 2 657 3 3 148 3
147 -252 0 -252 0 27 21 c14 11 24 25 21 30 -8 12 -21 11 -37 -3 -7 -7 -30
-21 -51 -30 -32 -16 -70 -18 -267 -18 -212 0 -230 1 -230 18 -1 9 -8 28 -16
42 -15 24 -15 24 -9 -17z m29 -119 c17 -69 39 -118 55 -129 5 -3 58 18 118 46
59 28 142 64 183 81 41 16 89 38 106 49 29 17 53 19 293 19 l261 0 0 -135 0
-135 -645 0 -645 0 0 135 0 135 129 0 129 0 16 -66z m346 27 c-52 -21 -136
-59 -187 -84 -53 -27 -95 -43 -98 -37 -6 9 -55 150 -55 157 0 2 98 3 218 3
l217 0 -95 -39z"/>
<path d="M137 943 c-4 -3 -7 -73 -7 -155 l0 -148 610 0 610 0 0 155 0 155
-603 0 c-332 0 -607 -3 -610 -7z m1203 -153 l0 -140 -598 0 -598 0 -2 140 -3
140 600 0 601 0 0 -140z"/>
<path d="M1470 370 l0 -150 670 0 670 0 0 150 0 150 -670 0 -670 0 0 -150z
m1330 0 l0 -140 -655 0 -655 0 0 140 0 140 655 0 655 0 0 -140z"/>
<path d="M130 355 l0 -155 610 0 610 0 0 155 0 155 -610 0 -610 0 0 -155z
m1210 3 l0 -143 -600 0 -600 0 0 143 0 142 600 0 600 0 0 -142z"/>
</g>
</svg>
