<?xml version="1.0" standalone="no"?>
<!DOCTYPE svg PUBLIC "-//W3C//DTD SVG 20010904//EN"
 "http://www.w3.org/TR/2001/REC-SVG-20010904/DTD/svg10.dtd">
<svg version="1.0" xmlns="http://www.w3.org/2000/svg"
 width="300.000000pt" height="169.000000pt" viewBox="0 0 300.000000 169.000000"
 preserveAspectRatio="xMidYMid meet">
<metadata>
Created by potrace 1.10, written by Peter Selinger 2001-2011
</metadata>
<g transform="translate(0.000000,169.000000) scale(0.100000,-0.100000)"
fill="#000000" stroke="none">
<path d="M0 845 l0 -835 1495 0 1495 0 0 835 0 835 -1495 0 -1495 0 0 -835z
m2975 0 l0 -825 -1482 0 -1483 0 0 825 0 825 1483 0 1482 0 0 -825z"/>
<path d="M210 1360 l0 -190 1293 2 1292 3 0 185 0 185 -1292 3 -1293 2 0 -190z
m2570 0 l0 -180 -1280 0 -1280 0 0 180 0 180 1280 0 1280 0 0 -180z"/>
<path d="M1840 1366 c0 -60 1 -64 25 -68 36 -7 62 24 49 60 -7 19 -17 27 -32
26 -17 0 -22 5 -22 23 0 13 -4 23 -10 23 -6 0 -10 -28 -10 -64z m55 -26 c0
-36 -29 -33 -33 3 -3 23 0 28 15 25 12 -2 18 -12 18 -28z"/>
<path d="M1097 1402 c-21 -23 -22 -75 -2 -92 8 -7 27 -12 43 -12 15 0 33 -5
40 -11 7 -5 16 -7 20 -3 4 4 -1 12 -10 17 -13 7 -14 14 -5 38 22 59 -45 108
-86 63z m69 -29 c9 -34 -7 -58 -37 -58 -19 0 -25 6 -27 28 -5 41 4 57 32 57
19 0 27 -7 32 -27z"/>
<path d="M1310 1410 c0 -5 5 -10 10 -10 6 0 10 5 10 10 0 6 -4 10 -10 10 -5 0
-10 -4 -10 -10z"/>
<path d="M1470 1361 c0 -34 4 -61 10 -61 6 0 10 21 10 48 l1 47 25 -47 c13
-27 29 -48 34 -48 6 0 9 27 8 63 l-2 62 -3 -55 -4 -55 -27 49 c-39 72 -52 71
-52 -3z"/>
<path d="M1210 1351 c0 -44 22 -70 43 -52 8 6 17 8 20 4 4 -3 6 16 6 43 l-2
49 -6 -40 c-4 -27 -12 -41 -23 -43 -15 -3 -18 4 -18 37 0 23 -4 41 -10 41 -5
0 -10 -17 -10 -39z"/>
<path d="M1310 1346 c0 -25 5 -46 10 -46 6 0 10 18 10 39 0 22 -4 43 -10 46
-6 4 -10 -12 -10 -39z"/>
<path d="M1350 1380 c0 -5 7 -10 15 -10 19 0 19 -9 0 -34 -22 -29 -19 -36 18
-35 23 1 26 3 10 6 -28 5 -28 8 -3 43 11 15 17 30 13 34 -10 10 -53 7 -53 -4z"/>
<path d="M1590 1351 c0 -44 22 -70 43 -52 8 6 17 8 20 4 4 -3 6 16 6 43 l-2
49 -6 -40 c-4 -27 -12 -41 -23 -43 -15 -3 -18 4 -18 37 0 23 -4 41 -10 41 -5
0 -10 -17 -10 -39z"/>
<path d="M1690 1343 c0 -24 5 -43 10 -43 6 0 10 16 10 35 0 24 5 35 15 35 10
0 15 -11 15 -35 0 -44 18 -46 22 -2 4 47 31 42 39 -8 7 -45 12 -37 9 15 -2 45
-15 58 -39 43 -10 -7 -22 -9 -26 -5 -4 4 -18 7 -31 7 -22 1 -24 -3 -24 -42z"/>
<path d="M1946 1368 c-20 -29 -20 -34 3 -57 12 -12 27 -17 40 -14 30 8 26 19
-6 18 -14 0 -28 6 -30 13 -3 8 6 12 26 12 32 0 41 16 19 38 -18 18 -35 15 -52
-10z m49 -8 c4 -6 -5 -10 -20 -10 -15 0 -24 4 -20 10 3 6 12 10 20 10 8 0 17
-4 20 -10z"/>
<path d="M2030 1344 c0 -24 5 -44 10 -44 6 0 10 14 10 30 0 18 6 33 15 36 23
9 18 22 -10 22 -23 0 -25 -4 -25 -44z"/>
<path d="M227 1113 c-4 -3 -7 -100 -7 -215 l0 -208 1285 0 1285 0 -2 213 -3
212 -1276 3 c-701 1 -1279 -1 -1282 -5z m2553 -213 l0 -200 -1275 0 -1275 0 0
200 0 200 1275 0 1275 0 0 -200z"/>
<path d="M1096 1008 c-32 -45 -6 -98 48 -98 17 0 37 -5 44 -12 6 -6 15 -8 19
-4 4 4 0 12 -9 17 -12 7 -15 18 -11 43 3 18 0 43 -6 55 -16 29 -65 28 -85 -1z
m62 0 c17 -17 15 -63 -4 -79 -36 -30 -73 41 -39 75 20 19 27 20 43 4z"/>
<path d="M1310 1020 c0 -5 5 -10 10 -10 6 0 10 5 10 10 0 6 -4 10 -10 10 -5 0
-10 -4 -10 -10z"/>
<path d="M1486 1014 c-36 -35 -12 -104 35 -104 17 0 39 -5 50 -10 11 -6 19 -7
19 -1 0 5 -6 11 -14 14 -12 5 -13 12 -4 35 22 59 -44 109 -86 66z m55 -4 c23
-13 26 -62 3 -81 -34 -28 -73 41 -43 77 14 17 15 17 40 4z"/>
<path d="M1930 1020 c0 -5 5 -10 10 -10 6 0 10 5 10 10 0 6 -4 10 -10 10 -5 0
-10 -4 -10 -10z"/>
<path d="M1867 1007 c-10 -26 8 -92 26 -95 9 -2 17 2 17 8 0 6 -4 8 -10 5 -6
-4 -10 6 -10 24 0 16 6 31 12 33 9 3 8 9 -4 21 -20 20 -24 21 -31 4z"/>
<path d="M1210 966 c0 -39 14 -54 53 -54 25 0 27 3 27 44 0 54 -18 59 -22 7
-2 -26 -8 -38 -18 -38 -10 0 -16 12 -18 38 -4 46 -22 49 -22 3z"/>
<path d="M1310 955 c0 -25 5 -45 10 -45 6 0 10 20 10 45 0 25 -4 45 -10 45 -5
0 -10 -20 -10 -45z"/>
<path d="M1350 989 c0 -6 9 -9 20 -6 25 6 25 -1 0 -33 -27 -34 -25 -40 10 -40
17 0 30 4 30 9 0 5 -10 7 -22 3 l-22 -5 22 35 c28 45 28 48 -8 48 -16 0 -30
-5 -30 -11z"/>
<path d="M1602 958 c3 -41 5 -43 36 -44 32 -1 32 -1 31 45 -2 34 -3 38 -6 16
-10 -63 -43 -74 -43 -15 0 22 -5 40 -11 40 -6 0 -9 -17 -7 -42z"/>
<path d="M1699 979 c-18 -34 3 -69 41 -69 16 0 30 4 30 9 0 6 -12 9 -26 8 -15
-1 -29 4 -31 11 -3 8 6 12 26 12 32 0 41 16 19 38 -19 19 -46 14 -59 -9z m42
-17 c-28 -4 -40 6 -21 18 9 6 20 4 29 -3 12 -10 11 -13 -8 -15z"/>
<path d="M1793 983 c-4 -11 1 -22 15 -31 30 -20 28 -36 -4 -28 -17 5 -23 3
-19 -4 8 -14 52 -13 61 2 4 6 -4 21 -20 33 -18 14 -24 25 -17 29 6 4 16 4 21
1 6 -3 10 -1 10 4 0 18 -40 12 -47 -6z"/>
<path d="M1930 955 c0 -25 5 -45 10 -45 6 0 10 20 10 45 0 25 -4 45 -10 45 -5
0 -10 -20 -10 -45z"/>
<path d="M1981 986 c-7 -8 -11 -27 -9 -43 6 -50 78 -40 78 11 0 41 -45 62 -69
32z m47 -35 c-3 -29 -25 -34 -41 -9 -8 12 -7 21 2 32 19 22 43 8 39 -23z"/>
<path d="M2070 953 c0 -24 5 -43 10 -43 6 0 10 16 10 36 0 28 3 35 18 32 10
-2 19 -16 24 -38 6 -32 6 -31 5 10 -2 44 -3 45 -34 45 -32 1 -33 0 -33 -42z"/>
<path d="M210 355 l0 -255 1298 2 1297 3 0 250 0 250 -1297 3 -1298 2 0 -255z
m2580 5 l0 -240 -1285 0 -1285 0 0 240 0 240 1285 0 1285 0 0 -240z"/>
<path d="M1770 455 c0 -40 4 -65 11 -65 6 0 9 12 8 28 -2 15 0 33 4 40 15 24
27 12 27 -28 0 -22 5 -40 11 -40 6 0 9 17 7 43 -3 38 -5 42 -30 42 -24 -1 -27
2 -22 22 4 14 2 23 -5 23 -7 0 -11 -24 -11 -65z"/>
<path d="M1966 511 c-4 -5 -2 -12 3 -15 5 -4 12 -2 15 3 4 5 2 12 -3 15 -5 4
-12 2 -15 -3z"/>
<path d="M1062 453 c-20 -55 -21 -86 -1 -50 12 21 55 23 63 2 3 -8 9 -15 14
-15 5 0 0 27 -12 60 -12 33 -26 60 -32 60 -6 0 -21 -26 -32 -57z m47 -5 c1 -5
-8 -8 -19 -8 -17 0 -18 3 -8 26 11 23 13 24 19 7 4 -10 8 -21 8 -25z"/>
<path d="M1676 488 c-20 -28 -20 -48 0 -76 17 -24 64 -28 71 -6 2 7 -8 9 -26
6 -25 -3 -31 0 -36 21 -10 39 11 70 42 62 16 -4 22 -2 18 5 -11 18 -53 11 -69
-12z"/>
<path d="M1160 434 c0 -54 18 -59 22 -6 4 52 31 50 39 -3 l7 -40 -2 45 c-1 44
-2 45 -33 46 -32 1 -33 0 -33 -42z"/>
<path d="M1256 465 c-3 -9 4 -21 19 -31 28 -19 23 -38 -7 -28 -14 4 -18 2 -14
-5 11 -17 46 -13 53 6 4 11 -1 22 -15 31 -28 18 -29 36 -2 29 11 -3 20 -1 20
4 0 15 -47 10 -54 -6z"/>
<path d="M1337 435 c8 -25 18 -45 22 -45 5 0 12 15 18 33 l10 32 7 -32 c12
-53 26 -43 50 35 4 12 3 22 -2 22 -5 0 -14 -15 -19 -32 l-11 -33 -7 33 c-8 34
-22 42 -30 17 -16 -49 -17 -50 -27 -17 -5 17 -13 32 -18 32 -5 0 -2 -20 7 -45z"/>
<path d="M1472 468 c-29 -29 -7 -78 34 -78 13 0 26 5 30 11 3 6 -1 10 -12 9
-31 -4 -44 -1 -44 10 0 6 14 10 30 10 18 0 30 5 30 13 0 18 -21 37 -40 37 -9
0 -21 -5 -28 -12z m45 -14 c2 -5 -6 -10 -17 -11 -20 -2 -26 8 -13 21 9 8 26 3
30 -10z"/>
<path d="M1560 433 c0 -53 18 -57 22 -5 2 23 8 36 16 35 6 -2 12 1 12 7 0 5
-11 9 -25 8 -22 -2 -25 -7 -25 -45z"/>
<path d="M1872 468 c-17 -17 -15 -53 3 -68 36 -30 87 18 64 62 -11 20 -49 24
-67 6z m56 -21 c5 -23 -16 -47 -34 -40 -14 5 -19 44 -7 57 12 12 38 1 41 -17z"/>
<path d="M1973 435 c0 -27 2 -38 4 -22 2 15 2 37 0 50 -2 12 -4 0 -4 -28z"/>
<path d="M2009 459 c-16 -31 4 -71 33 -67 12 2 24 10 26 18 4 12 2 13 -9 3
-20 -17 -41 -1 -37 28 2 18 9 23 26 22 12 -2 22 2 22 7 0 19 -49 10 -61 -11z"/>
<path d="M2090 459 c-17 -31 2 -69 34 -69 14 0 28 5 32 11 3 6 -1 10 -12 9
-31 -4 -44 -1 -44 10 0 6 14 10 31 10 26 0 30 3 27 23 -4 32 -52 36 -68 6z
m50 -2 c0 -7 -9 -13 -20 -14 -20 -2 -26 8 -13 20 11 12 33 8 33 -6z"/>
<path d="M2183 464 c-4 -11 2 -23 18 -35 24 -19 21 -23 -15 -19 -11 1 -15 -3
-12 -9 10 -16 42 -13 57 5 11 14 10 18 -6 30 -10 8 -23 14 -28 14 -4 0 -5 5
-2 11 4 6 13 8 21 5 8 -3 14 -1 14 4 0 17 -40 11 -47 -6z"/>
<path d="M1059 263 c-12 -15 -12 -16 4 -10 14 5 17 0 17 -33 0 -29 -4 -40 -15
-40 -8 0 -15 -4 -15 -10 0 -5 19 -10 43 -10 37 1 40 2 25 14 -13 9 -18 27 -18
60 0 49 -16 61 -41 29z"/>
<path d="M1236 271 c-4 -6 5 -9 20 -8 38 3 40 -16 5 -56 -17 -19 -31 -37 -31
-41 0 -3 18 -6 40 -6 22 0 40 5 40 10 0 6 -12 10 -27 10 l-26 0 22 24 c31 33
25 70 -11 74 -14 2 -29 -1 -32 -7z"/>
<path d="M1420 270 c0 -5 10 -9 21 -7 29 3 37 -23 10 -30 l-22 -6 22 -11 c31
-16 28 -30 -7 -36 -20 -4 -25 -8 -16 -14 7 -4 24 -5 38 -2 17 5 24 13 24 31 0
14 -5 25 -11 25 -8 0 -8 5 1 15 19 23 4 45 -30 45 -16 0 -30 -4 -30 -10z"/>
<path d="M1621 244 c-27 -45 -26 -54 4 -54 16 0 25 -6 25 -15 0 -8 5 -15 10
-15 6 0 10 6 10 14 0 8 6 17 13 19 10 4 10 6 0 6 -8 1 -13 16 -13 41 0 51 -20
53 -49 4z m29 -14 c0 -20 -5 -30 -15 -30 -18 0 -18 2 -3 35 15 32 18 32 18 -5z"/>
<path d="M1147 169 c-3 -13 -1 -19 6 -16 15 5 22 37 9 37 -5 0 -12 -9 -15 -21z"/>
<path d="M1336 183 c-9 -9 -7 -33 3 -33 12 0 22 28 12 34 -5 3 -11 3 -15 -1z"/>
<path d="M1517 169 c-3 -13 -1 -19 6 -16 15 5 22 37 9 37 -5 0 -12 -9 -15 -21z"/>
</g>
</svg>
