<?xml version="1.0" standalone="no"?>
<!DOCTYPE svg PUBLIC "-//W3C//DTD SVG 20010904//EN"
 "http://www.w3.org/TR/2001/REC-SVG-20010904/DTD/svg10.dtd">
<svg version="1.0" xmlns="http://www.w3.org/2000/svg"
 width="300.000000pt" height="169.000000pt" viewBox="0 0 300.000000 169.000000"
 preserveAspectRatio="xMidYMid meet">
<metadata>
Created by potrace 1.10, written by Peter Selinger 2001-2011
</metadata>
<g transform="translate(0.000000,169.000000) scale(0.100000,-0.100000)"
fill="#000000" stroke="none">
<path d="M30 845 l0 -825 1475 0 1475 0 0 825 0 825 -1475 0 -1475 0 0 -825z
m2940 0 l0 -815 -1460 0 -1460 0 0 815 0 815 1460 0 1460 0 0 -815z"/>
<path d="M1178 1454 c-9 -13 -4 -121 5 -131 4 -3 7 7 7 23 l0 29 25 -30 c27
-33 34 -27 10 9 -14 21 -14 24 0 36 8 7 15 17 15 23 0 6 -11 0 -24 -12 l-25
-23 -3 43 c-2 24 -6 39 -10 33z"/>
<path d="M949 1423 c-4 -71 18 -120 43 -95 9 9 8 12 -5 12 -12 0 -17 8 -17 30
0 17 5 30 10 30 6 0 10 5 10 11 0 5 -4 7 -10 4 -5 -3 -10 1 -10 9 0 22 -20 20
-21 -1z"/>
<path d="M1023 1413 c-23 -9 -14 -20 12 -15 14 2 25 0 25 -6 0 -6 -10 -12 -22
-14 -24 -3 -36 -34 -20 -50 5 -5 21 -6 36 -2 20 5 26 12 26 34 0 16 -7 36 -16
44 -16 17 -21 18 -41 9z m37 -58 c0 -8 -9 -15 -20 -15 -22 0 -27 15 -7 23 21
9 27 7 27 -8z"/>
<path d="M1113 1413 c-20 -8 -15 -41 7 -48 29 -9 24 -25 -7 -25 -22 0 -25 -2
-13 -10 21 -13 26 -13 46 7 15 16 15 18 -12 40 -28 22 -28 23 -6 23 13 0 20 4
17 10 -7 11 -13 11 -32 3z"/>
<path d="M1318 1409 c-32 -18 -18 -89 18 -89 40 0 59 71 25 90 -23 12 -22 12
-43 -1z m42 -39 c0 -23 -5 -30 -19 -30 -10 0 -21 7 -25 15 -8 23 4 45 25 45
14 0 19 -7 19 -30z"/>
<path d="M1400 1368 c0 -56 17 -65 22 -10 4 52 31 50 39 -3 7 -46 12 -37 9 15
-2 43 -2 43 -40 45 -29 2 -30 1 -30 -47z"/>
<path d="M1512 1408 c-17 -17 -15 -63 3 -78 14 -11 55 -5 55 9 0 4 -12 7 -27
6 -14 0 -28 6 -30 13 -3 8 6 12 26 12 19 0 31 5 31 13 0 16 -20 37 -35 37 -6
0 -16 -5 -23 -12z m43 -18 c4 -6 -5 -10 -20 -10 -15 0 -24 4 -20 10 3 6 12 10
20 10 8 0 17 -4 20 -10z"/>
<path d="M1200 865 c0 -39 4 -65 11 -65 6 0 8 9 4 20 -3 11 -3 20 2 20 4 0 14
-9 21 -20 7 -11 17 -20 24 -20 6 0 2 10 -10 23 l-22 24 20 18 c11 10 18 21 15
23 -3 3 -16 -5 -29 -17 l-24 -23 5 41 c4 27 2 41 -6 41 -7 0 -11 -23 -11 -65z"/>
<path d="M970 892 c-10 -11 -11 -17 -2 -20 7 -2 12 -19 12 -37 0 -31 23 -55
35 -36 3 5 -2 11 -10 15 -20 7 -20 56 0 56 8 0 15 5 15 10 0 6 -6 10 -14 10
-8 0 -16 4 -18 9 -1 5 -10 2 -18 -7z"/>
<path d="M1328 898 c-15 -39 19 -127 37 -98 3 5 1 10 -4 10 -15 0 -14 57 1 62
9 3 8 9 -4 21 -20 20 -24 21 -30 5z"/>
<path d="M1040 880 c-12 -8 -9 -10 12 -10 38 0 43 -16 7 -24 -42 -8 -36 -40 9
-44 31 -3 32 -2 32 36 0 48 -25 65 -60 42z m45 -50 c3 -6 -1 -13 -10 -16 -19
-8 -30 0 -20 15 8 14 22 14 30 1z"/>
<path d="M1129 874 c-12 -15 -11 -19 9 -32 27 -18 29 -36 2 -29 -22 6 -28 -8
-7 -16 17 -6 47 11 47 28 0 7 -9 17 -20 20 -26 8 -26 25 1 25 11 0 17 5 14 10
-9 15 -31 12 -46 -6z"/>
<path d="M1384 873 c3 -10 8 -30 12 -45 3 -16 12 -28 19 -28 7 0 16 12 20 28
l7 27 10 -28 c6 -15 15 -26 20 -25 12 4 40 80 32 87 -7 8 -24 -21 -24 -41 0
-30 -17 -20 -24 13 -7 37 -21 31 -31 -13 l-7 -33 -10 38 c-6 20 -14 37 -20 37
-5 0 -7 -8 -4 -17z"/>
<path d="M1531 876 c-7 -8 -11 -27 -9 -43 3 -25 7 -28 38 -28 31 0 35 3 38 28
4 32 -13 57 -38 57 -10 0 -23 -6 -29 -14z m47 -33 c-3 -32 -33 -43 -40 -16 -7
27 1 43 23 43 16 0 20 -6 17 -27z"/>
<path d="M1200 285 c0 -37 4 -65 10 -65 6 0 10 10 10 23 l0 22 20 -25 c10 -14
22 -21 26 -17 4 4 -1 16 -11 27 -17 19 -17 21 0 40 22 24 9 27 -17 3 -17 -15
-18 -14 -18 20 0 21 -4 37 -10 37 -6 0 -10 -28 -10 -65z"/>
<path d="M1390 285 c0 -37 4 -65 10 -65 6 0 10 15 10 34 0 20 6 36 14 39 20 8
26 -2 26 -40 0 -18 5 -33 10 -33 16 0 12 66 -5 80 -8 7 -22 10 -30 6 -11 -4
-15 1 -15 19 0 14 -4 25 -10 25 -6 0 -10 -28 -10 -65z"/>
<path d="M977 317 c-2 -7 -2 -30 2 -52 5 -30 11 -40 26 -42 11 -2 14 0 8 3 -7
3 -13 21 -13 40 0 21 4 33 10 29 15 -9 12 4 -4 21 -18 17 -23 18 -29 1z"/>
<path d="M1334 321 c4 -5 0 -12 -6 -15 -11 -5 -11 -7 0 -12 6 -3 9 -10 6 -15
-13 -21 6 -59 29 -59 20 1 20 2 5 11 -11 6 -18 22 -18 40 0 17 4 28 9 24 5 -3
12 -1 16 5 3 5 -1 10 -9 10 -9 0 -16 5 -16 10 0 6 -5 10 -11 10 -5 0 -8 -4 -5
-9z"/>
<path d="M1045 301 c-4 -7 2 -10 16 -8 12 1 24 -4 26 -10 3 -8 -4 -13 -15 -13
-24 0 -43 -21 -34 -37 4 -7 21 -11 38 -11 29 1 30 2 24 42 -4 32 -10 42 -27
44 -11 2 -24 -2 -28 -7z m45 -50 c0 -14 -18 -23 -30 -16 -6 4 -8 11 -5 16 8
12 35 12 35 0z"/>
<path d="M1133 294 c-4 -11 2 -23 17 -34 25 -19 14 -35 -16 -23 -12 4 -15 3
-10 -5 11 -18 46 -15 53 4 4 11 -2 23 -16 33 -23 17 -19 34 5 24 8 -3 14 0 14
6 0 17 -40 13 -47 -5z"/>
<path d="M1490 264 c0 -24 5 -44 10 -44 6 0 10 16 10 35 0 24 5 35 15 35 8 0
15 4 15 9 0 5 -11 9 -25 9 -23 0 -25 -4 -25 -44z"/>
<path d="M1558 284 c-8 -18 -9 -30 -1 -42 12 -20 51 -28 66 -13 7 7 2 10 -18
8 -15 -1 -30 4 -32 11 -3 8 6 12 26 12 32 0 41 16 19 38 -20 20 -48 14 -60
-14z m50 -2 c2 -7 -6 -12 -17 -12 -21 0 -27 11 -14 24 9 9 26 2 31 -12z"/>
<path d="M1662 302 c-8 -6 -12 -23 -10 -43 3 -30 7 -34 36 -37 18 -2 32 1 32
8 0 6 -10 8 -24 4 -16 -4 -25 -1 -29 10 -5 12 0 16 24 16 26 0 30 3 27 23 -3
23 -33 34 -56 19z m48 -23 c0 -5 -12 -9 -26 -9 -22 0 -24 2 -14 14 12 15 40
11 40 -5z"/>
</g>
</svg>
