<?xml version="1.0" standalone="no"?>
<!DOCTYPE svg PUBLIC "-//W3C//DTD SVG 20010904//EN"
 "http://www.w3.org/TR/2001/REC-SVG-20010904/DTD/svg10.dtd">
<svg version="1.0" xmlns="http://www.w3.org/2000/svg"
 width="300.000000pt" height="169.000000pt" viewBox="0 0 300.000000 169.000000"
 preserveAspectRatio="xMidYMid meet">
<metadata>
Created by potrace 1.10, written by Peter Selinger 2001-2011
</metadata>
<g transform="translate(0.000000,169.000000) scale(0.100000,-0.100000)"
fill="#000000" stroke="none">
<path d="M30 845 l0 -825 1475 0 1475 0 0 825 0 825 -1475 0 -1475 0 0 -825z
m2940 0 l0 -815 -1460 0 -1460 0 0 815 0 815 1460 0 1460 0 0 -815z"/>
<path d="M1176 1447 c-4 -9 -5 -29 -1 -44 8 -32 -9 -45 -42 -30 -29 13 -30 27
-1 27 15 0 19 3 12 10 -15 15 -44 1 -44 -21 0 -10 -7 -19 -15 -19 -8 0 -14 3
-14 8 5 29 -18 46 -46 36 -24 -10 -17 -22 10 -16 31 5 33 -13 3 -22 -40 -10
-68 -7 -68 9 0 8 5 15 10 15 6 0 10 5 10 11 0 5 -4 7 -10 4 -5 -3 -10 1 -10 9
0 9 -4 16 -10 16 -10 0 -14 -20 -10 -54 2 -17 -7 -18 -164 -14 -91 2 -166 0
-166 -4 0 -4 72 -8 161 -8 155 0 161 -1 179 -22 15 -19 21 -21 31 -10 11 10
10 12 -4 12 -9 0 -17 5 -17 10 0 6 9 10 20 10 11 0 20 -6 20 -14 0 -8 4 -17
10 -21 15 -9 60 6 60 20 0 16 19 23 43 17 27 -7 20 -22 -10 -22 -22 0 -25 -2
-13 -10 21 -14 27 -13 50 12 11 12 21 19 21 15 1 -4 2 -11 3 -16 3 -25 16 -21
16 5 l0 29 25 -30 c26 -32 35 -23 10 12 -13 18 -13 22 0 33 8 7 15 17 15 23 0
6 -11 0 -24 -12 l-25 -23 -3 43 c-3 32 -6 39 -12 26z m-116 -97 c0 -5 -9 -10
-20 -10 -11 0 -20 5 -20 10 0 6 9 10 20 10 11 0 20 -4 20 -10z"/>
<path d="M1318 1409 c-10 -5 -18 -19 -18 -31 0 -17 -5 -20 -30 -16 -16 3 -30
1 -30 -4 0 -4 12 -8 27 -8 14 0 34 -7 44 -16 18 -16 59 -12 59 7 0 5 7 9 15 9
8 0 15 -7 15 -15 0 -8 5 -15 10 -15 6 0 10 7 10 15 0 21 38 19 43 -2 4 -17 5
-17 6 0 1 21 19 22 42 1 12 -11 25 -13 41 -8 22 8 22 8 -7 14 -16 4 116 6 295
4 l325 -2 -330 12 c-181 7 -315 13 -297 14 25 2 33 6 30 18 -2 9 -10 22 -20
27 -20 13 -48 -6 -48 -34 0 -11 -7 -19 -15 -19 -9 0 -15 9 -15 25 0 27 0 27
-42 29 -24 2 -28 -2 -28 -26 0 -15 -4 -28 -10 -28 -5 0 -10 9 -10 20 0 10 -9
24 -19 30 -23 12 -22 12 -43 -1z m42 -29 c0 -15 -7 -20 -25 -20 -27 0 -28 1
-19 24 9 24 44 20 44 -4z m98 -3 c2 -12 -3 -17 -17 -17 -12 0 -21 6 -21 13 0
31 32 34 38 4z m97 13 c4 -6 -5 -10 -20 -10 -15 0 -24 4 -20 10 3 6 12 10 20
10 8 0 17 -4 20 -10z m-202 -47 c-7 -2 -19 -2 -25 0 -7 3 -2 5 12 5 14 0 19
-2 13 -5z"/>
<path d="M1200 885 c0 -46 -8 -53 -44 -39 -23 9 -19 24 6 24 17 0 19 3 10 12
-16 16 -48 -2 -46 -26 1 -9 -4 -16 -12 -16 -8 0 -14 9 -14 19 0 24 -33 36 -57
22 -16 -9 -14 -10 9 -11 39 0 43 -16 7 -24 -50 -10 -69 -7 -69 9 0 8 7 15 15
15 8 0 15 5 15 10 0 6 -7 10 -15 10 -8 0 -15 5 -15 11 0 6 -8 3 -17 -7 -13
-13 -14 -19 -5 -22 6 -2 12 -19 12 -37 0 -19 6 -35 14 -38 22 -9 28 5 8 19
-16 12 -15 13 4 14 12 0 24 -7 28 -15 3 -9 18 -15 36 -15 20 0 30 5 30 15 0
10 10 15 30 15 17 0 30 -5 30 -11 0 -6 -9 -9 -20 -6 -23 6 -27 -8 -5 -17 9 -3
24 3 35 14 24 24 30 25 30 5 0 -8 5 -15 11 -15 6 0 9 7 5 15 -3 8 -2 15 3 15
5 0 14 -7 21 -15 7 -8 17 -15 22 -15 6 0 5 7 -2 15 -11 13 -7 15 25 15 26 0
42 -6 54 -22 12 -15 20 -18 25 -10 4 7 2 12 -3 12 -6 0 -11 5 -11 10 0 6 11
10 25 10 16 0 25 -6 25 -15 0 -8 7 -15 15 -15 8 0 15 7 15 15 0 20 17 19 29
-2 10 -17 12 -17 25 0 16 21 32 22 40 2 3 -9 18 -15 35 -15 25 0 32 5 37 27 4
14 2 33 -3 42 -15 24 -56 20 -68 -6 -5 -13 -16 -23 -23 -23 -9 0 -10 5 -2 19
13 24 13 31 0 31 -5 0 -14 -15 -19 -32 l-9 -33 -12 32 c-14 39 -25 36 -35 -9
l-7 -33 -10 38 c-6 20 -14 37 -19 37 -5 0 -7 -11 -3 -25 5 -21 3 -25 -15 -25
-22 0 -29 26 -9 32 9 3 8 10 -5 23 -16 15 -20 16 -27 4 -5 -8 -7 -24 -3 -36 5
-22 2 -23 -48 -23 l-52 0 23 25 c28 30 15 34 -16 4 l-22 -21 5 41 c4 27 2 41
-6 41 -6 0 -11 -18 -11 -45z m383 -27 c7 -23 -5 -48 -23 -48 -18 0 -30 25 -23
48 3 6 13 12 23 12 10 0 20 -6 23 -12z m-498 -39 c-8 -12 -35 -12 -35 0 0 11
22 20 33 14 4 -2 5 -9 2 -14z"/>
<path d="M615 845 c23 -8 355 -11 355 -4 0 5 -82 9 -182 8 -101 0 -178 -2
-173 -4z"/>
<path d="M1610 828 c0 -5 102 -8 228 -7 125 0 223 2 217 4 -21 8 -445 10 -445
3z"/>
<path d="M1200 285 c0 -37 4 -65 10 -65 6 0 10 10 10 23 l0 22 20 -25 c10 -14
22 -21 26 -17 4 4 -1 16 -11 27 -17 19 -17 21 0 40 22 24 9 27 -17 3 -17 -15
-18 -14 -18 20 0 21 -4 37 -10 37 -6 0 -10 -28 -10 -65z"/>
<path d="M1390 285 c0 -37 4 -65 10 -65 6 0 10 15 10 34 0 20 6 36 14 39 20 8
26 -2 26 -40 0 -18 5 -33 10 -33 16 0 12 66 -5 80 -8 7 -22 10 -30 6 -11 -4
-15 1 -15 19 0 14 -4 25 -10 25 -6 0 -10 -28 -10 -65z"/>
<path d="M977 317 c-2 -7 -2 -30 2 -52 5 -30 11 -40 26 -42 11 -2 14 0 8 3 -7
3 -13 21 -13 40 0 21 4 33 10 29 15 -9 12 4 -4 21 -18 17 -23 18 -29 1z"/>
<path d="M1334 321 c4 -5 0 -12 -6 -15 -11 -5 -11 -7 0 -12 6 -3 9 -10 6 -15
-13 -21 6 -59 29 -59 20 1 20 2 5 11 -11 6 -18 22 -18 40 0 17 4 28 9 24 5 -3
12 -1 16 5 3 5 -1 10 -9 10 -9 0 -16 5 -16 10 0 6 -5 10 -11 10 -5 0 -8 -4 -5
-9z"/>
<path d="M1045 301 c-4 -7 2 -10 16 -8 12 1 24 -4 26 -10 3 -8 -4 -13 -15 -13
-24 0 -43 -21 -34 -37 4 -7 21 -11 38 -11 29 1 30 2 24 42 -4 32 -10 42 -27
44 -11 2 -24 -2 -28 -7z m45 -50 c0 -14 -18 -23 -30 -16 -6 4 -8 11 -5 16 8
12 35 12 35 0z"/>
<path d="M1133 294 c-4 -11 2 -23 17 -34 25 -19 14 -35 -16 -23 -12 4 -15 3
-10 -5 11 -18 46 -15 53 4 4 11 -2 23 -16 33 -23 17 -19 34 5 24 8 -3 14 0 14
6 0 17 -40 13 -47 -5z"/>
<path d="M1490 264 c0 -24 5 -44 10 -44 6 0 10 16 10 35 0 24 5 35 15 35 8 0
15 4 15 9 0 5 -11 9 -25 9 -23 0 -25 -4 -25 -44z"/>
<path d="M1558 284 c-8 -18 -9 -30 -1 -42 12 -20 51 -28 66 -13 7 7 2 10 -18
8 -15 -1 -30 4 -32 11 -3 8 6 12 26 12 32 0 41 16 19 38 -20 20 -48 14 -60
-14z m50 -2 c2 -7 -6 -12 -17 -12 -21 0 -27 11 -14 24 9 9 26 2 31 -12z"/>
<path d="M1662 302 c-8 -6 -12 -23 -10 -43 3 -30 7 -34 36 -37 18 -2 32 1 32
8 0 6 -10 8 -24 4 -16 -4 -25 -1 -29 10 -5 12 0 16 24 16 26 0 30 3 27 23 -3
23 -33 34 -56 19z m48 -23 c0 -5 -12 -9 -26 -9 -22 0 -24 2 -14 14 12 15 40
11 40 -5z"/>
</g>
</svg>
